<?xml version="1.0" encoding="UTF-8"?>
<!DOCTYPE svg PUBLIC "-//W3C//DTD SVG 1.1//EN" "http://www.w3.org/Graphics/SVG/1.1/DTD/svg11.dtd">
<svg version="1.2" width="152.4mm" height="152.4mm" viewBox="0 0 15240 15240" preserveAspectRatio="xMidYMid" fill-rule="evenodd" stroke-width="28.222" stroke-linejoin="round" xmlns="http://www.w3.org/2000/svg" xmlns:ooo="http://xml.openoffice.org/svg/export" xmlns:xlink="http://www.w3.org/1999/xlink" xmlns:presentation="http://sun.com/xmlns/staroffice/presentation" xmlns:smil="http://www.w3.org/2001/SMIL20/" xmlns:anim="urn:oasis:names:tc:opendocument:xmlns:animation:1.0" xml:space="preserve">
 <defs class="ClipPathGroup">
  <clipPath id="presentation_clip_path" clipPathUnits="userSpaceOnUse">
   <rect x="0" y="0" width="15240" height="15240"/>
  </clipPath>
  <clipPath id="presentation_clip_path_shrink" clipPathUnits="userSpaceOnUse">
   <rect x="15" y="15" width="15210" height="15210"/>
  </clipPath>
 </defs>
 <defs class="TextShapeIndex">
  <g ooo:slide="id1" ooo:id-list="id3"/>
 </defs>
 <defs class="EmbeddedBulletChars">
  <g id="bullet-char-template(57356)" transform="scale(0.00048828125,-0.00048828125)">
   <path d="M 580,1141 L 1163,571 580,0 -4,571 580,1141 Z"/>
  </g>
  <g id="bullet-char-template(57354)" transform="scale(0.00048828125,-0.00048828125)">
   <path d="M 8,1128 L 1137,1128 1137,0 8,0 8,1128 Z"/>
  </g>
  <g id="bullet-char-template(10146)" transform="scale(0.00048828125,-0.00048828125)">
   <path d="M 174,0 L 602,739 174,1481 1456,739 174,0 Z M 1358,739 L 309,1346 659,739 1358,739 Z"/>
  </g>
  <g id="bullet-char-template(10132)" transform="scale(0.00048828125,-0.00048828125)">
   <path d="M 2015,739 L 1276,0 717,0 1260,543 174,543 174,936 1260,936 717,1481 1274,1481 2015,739 Z"/>
  </g>
  <g id="bullet-char-template(10007)" transform="scale(0.00048828125,-0.00048828125)">
   <path d="M 0,-2 C -7,14 -16,27 -25,37 L 356,567 C 262,823 215,952 215,954 215,979 228,992 255,992 264,992 276,990 289,987 310,991 331,999 354,1012 L 381,999 492,748 772,1049 836,1024 860,1049 C 881,1039 901,1025 922,1006 886,937 835,863 770,784 769,783 710,716 594,584 L 774,223 C 774,196 753,168 711,139 L 727,119 C 717,90 699,76 672,76 641,76 570,178 457,381 L 164,-76 C 142,-110 111,-127 72,-127 30,-127 9,-110 8,-76 1,-67 -2,-52 -2,-32 -2,-23 -1,-13 0,-2 Z"/>
  </g>
  <g id="bullet-char-template(10004)" transform="scale(0.00048828125,-0.00048828125)">
   <path d="M 285,-33 C 182,-33 111,30 74,156 52,228 41,333 41,471 41,549 55,616 82,672 116,743 169,778 240,778 293,778 328,747 346,684 L 369,508 C 377,444 397,411 428,410 L 1163,1116 C 1174,1127 1196,1133 1229,1133 1271,1133 1292,1118 1292,1087 L 1292,965 C 1292,929 1282,901 1262,881 L 442,47 C 390,-6 338,-33 285,-33 Z"/>
  </g>
  <g id="bullet-char-template(9679)" transform="scale(0.00048828125,-0.00048828125)">
   <path d="M 813,0 C 632,0 489,54 383,161 276,268 223,411 223,592 223,773 276,916 383,1023 489,1130 632,1184 813,1184 992,1184 1136,1130 1245,1023 1353,916 1407,772 1407,592 1407,412 1353,268 1245,161 1136,54 992,0 813,0 Z"/>
  </g>
  <g id="bullet-char-template(8226)" transform="scale(0.00048828125,-0.00048828125)">
   <path d="M 346,457 C 273,457 209,483 155,535 101,586 74,649 74,723 74,796 101,859 155,911 209,963 273,989 346,989 419,989 480,963 531,910 582,859 608,796 608,723 608,648 583,586 532,535 482,483 420,457 346,457 Z"/>
  </g>
  <g id="bullet-char-template(8211)" transform="scale(0.00048828125,-0.00048828125)">
   <path d="M -4,459 L 1135,459 1135,606 -4,606 -4,459 Z"/>
  </g>
  <g id="bullet-char-template(61548)" transform="scale(0.00048828125,-0.00048828125)">
   <path d="M 173,740 C 173,903 231,1043 346,1159 462,1274 601,1332 765,1332 928,1332 1067,1274 1183,1159 1299,1043 1357,903 1357,740 1357,577 1299,437 1183,322 1067,206 928,148 765,148 601,148 462,206 346,322 231,437 173,577 173,740 Z"/>
  </g>
 </defs>
 <defs class="TextEmbeddedBitmaps"/>
 <g>
  <g id="id2" class="Master_Slide">
   <g id="bg-id2" class="Background"/>
   <g id="bo-id2" class="BackgroundObjects"/>
  </g>
 </g>
 <g class="SlideGroup">
  <g>
   <g id="container-id1">
    <g id="id1" class="Slide" clip-path="url(#presentation_clip_path)">
     <g class="Page">
      <g class="Graphic">
       <g id="id3">
        <rect class="BoundingBox" stroke="none" fill="none" x="1000" y="1000" width="13241" height="13241"/>
        <defs>
         <mask id="mask1">
          <g>
           <defs>
            <linearGradient id="gradient1" x1="7620" y1="1001" x2="7620" y2="14240" gradientUnits="userSpaceOnUse">
             <stop offset="0.5" style="stop-color:rgb(128,128,128)"/>
             <stop offset="0.5" style="stop-color:rgb(128,128,128)"/>
             <stop offset="1" style="stop-color:rgb(128,128,128)"/>
             <stop offset="1" style="stop-color:rgb(128,128,128)"/>
            </linearGradient>
           </defs>
           <path style="fill:url(#gradient1)" d="M 1001,1001 L 14240,1001 14240,14240 1001,14240 1001,1001 Z"/>
          </g>
         </mask>
        </defs>
        <g style="mask:url(#mask1)">
         <g>
          <defs>
           <linearGradient id="gradient2" x1="7620" y1="1001" x2="7620" y2="14239" gradientUnits="userSpaceOnUse">
            <stop offset="0" style="stop-color:rgb(0,0,0)"/>
            <stop offset="1" style="stop-color:rgb(0,0,0)"/>
           </linearGradient>
          </defs>
          <path style="fill:url(#gradient2)" d="M 7620,1001 L 6986,1031 6356,1122 5735,1273 5128,1485 4541,1758 3977,2091 3706,2281 3442,2485 3186,2704 2939,2939 2484,3442 2091,3978 1758,4541 1485,5129 1273,5735 1122,6356 1031,6985 1001,7620 1031,8254 1122,8884 1273,9504 1485,10111 1758,10698 2091,11262 2484,11797 2939,12300 3442,12755 3977,13149 4541,13482 5128,13754 5735,13967 6355,14118 6985,14209 7619,14239 8254,14209 8884,14118 9504,13967 10111,13754 10698,13482 11262,13149 11797,12755 12300,12300 12755,11797 13149,11262 13481,10698 13754,10111 13966,9504 14118,8884 14209,8254 14239,7620 14209,6985 14118,6356 13966,5735 13754,5129 13481,4541 13149,3978 12755,3442 12300,2939 12053,2704 11797,2485 11533,2281 11262,2091 10698,1758 10111,1485 9504,1273 8884,1122 8254,1031 7620,1001 Z M 7620,1896 L 8168,1922 8713,2001 9249,2132 9773,2315 10281,2551 10768,2839 11003,3002 11232,3179 11453,3369 11666,3572 12059,4007 12399,4470 12688,4957 12924,5465 13107,5989 13238,6526 13317,7071 13343,7620 13317,8168 13238,8713 13107,9250 12924,9774 12688,10282 12399,10769 12059,11232 11666,11667 11232,12060 10768,12400 10281,12688 9773,12924 9249,13108 8713,13239 8168,13318 7619,13344 7071,13318 6526,13239 5990,13108 5466,12924 4958,12688 4471,12400 4007,12060 3573,11667 3180,11232 2840,10769 2551,10282 2315,9774 2132,9250 2001,8713 1922,8168 1896,7620 1922,7071 2001,6526 2132,5989 2315,5465 2551,4957 2840,4470 3180,4007 3573,3572 3786,3369 4007,3179 4236,3002 4471,2839 4958,2551 5466,2315 5990,2132 6526,2001 7071,1922 7620,1896 Z"/>
         </g>
        </g>
        <g>
         <defs>
          <linearGradient id="gradient3" x1="7620" y1="1001" x2="7620" y2="14239" gradientUnits="userSpaceOnUse">
           <stop offset="0" style="stop-color:rgb(243,143,24)"/>
           <stop offset="1" style="stop-color:rgb(222,106,16)"/>
          </linearGradient>
         </defs>
         <path style="fill:url(#gradient3)" d="M 7620,1001 L 6986,1031 6356,1122 5735,1273 5129,1486 4541,1758 3977,2091 3706,2281 3442,2485 3186,2704 2939,2940 2484,3442 2091,3978 1758,4541 1486,5129 1273,5735 1122,6356 1031,6985 1001,7620 1031,8254 1122,8884 1273,9504 1486,10111 1758,10698 2091,11262 2484,11797 2939,12301 3442,12755 3977,13149 4541,13482 5129,13755 5735,13967 6355,14118 6985,14209 7619,14239 8254,14209 8884,14118 9504,13967 10111,13755 10698,13482 11262,13149 11797,12755 12301,12301 12755,11797 13149,11262 13482,10698 13755,10111 13966,9504 14118,8884 14209,8254 14239,7620 14209,6985 14118,6356 13966,5735 13755,5129 13482,4541 13149,3978 12755,3442 12301,2940 12054,2704 11797,2485 11534,2281 11262,2091 10698,1758 10111,1486 9504,1273 8884,1122 8254,1031 7620,1001 Z M 7620,1896 L 8169,1922 8713,2001 9249,2132 9773,2315 10281,2551 10768,2839 11004,3003 11232,3179 11453,3369 11666,3572 12060,4007 12400,4470 12688,4957 12924,5465 13107,5990 13238,6526 13317,7071 13343,7620 13317,8169 13238,8713 13107,9250 12924,9774 12688,10282 12400,10769 12060,11232 11666,11667 11232,12060 10768,12401 10281,12689 9773,12925 9249,13108 8713,13239 8169,13318 7619,13344 7071,13318 6526,13239 5990,13108 5466,12925 4958,12689 4471,12401 4007,12060 3573,11667 3180,11232 2840,10769 2551,10282 2315,9774 2132,9250 2001,8713 1922,8169 1896,7620 1922,7071 2001,6526 2132,5990 2315,5465 2551,4957 2840,4470 3180,4007 3573,3572 3786,3369 4007,3179 4236,3003 4471,2839 4958,2551 5466,2315 5990,2132 6526,2001 7072,1922 7620,1896 Z"/>
        </g>
        <defs>
         <mask id="mask2">
          <g>
           <defs>
            <linearGradient id="gradient4" x1="7620" y1="2385" x2="7620" y2="12856" gradientUnits="userSpaceOnUse">
             <stop offset="0.5" style="stop-color:rgb(128,128,128)"/>
             <stop offset="0.5" style="stop-color:rgb(128,128,128)"/>
             <stop offset="1" style="stop-color:rgb(128,128,128)"/>
             <stop offset="1" style="stop-color:rgb(128,128,128)"/>
            </linearGradient>
           </defs>
           <path style="fill:url(#gradient4)" d="M 2384,2385 L 12856,2385 12856,12856 2384,12856 2384,2385 Z"/>
          </g>
         </mask>
        </defs>
        <g style="mask:url(#mask2)">
         <g>
          <defs>
           <linearGradient id="gradient5" x1="7620" y1="2385" x2="7620" y2="12856" gradientUnits="userSpaceOnUse">
            <stop offset="0" style="stop-color:rgb(0,0,0)"/>
            <stop offset="1" style="stop-color:rgb(0,0,0)"/>
           </linearGradient>
          </defs>
          <path style="fill:url(#gradient5)" d="M 7620,2385 L 7118,2410 6620,2481 6129,2601 5650,2768 5185,2984 4739,3247 4524,3397 4315,3559 4113,3732 3917,3917 3558,4316 3247,4739 2983,5185 2767,5650 2600,6129 2480,6620 2409,7118 2384,7620 2409,8122 2480,8620 2600,9111 2767,9590 2983,10055 3247,10501 3558,10924 3917,11322 4315,11681 4739,11993 5185,12257 5650,12472 6129,12640 6620,12760 7118,12832 7620,12856 8121,12832 8619,12760 9110,12640 9590,12472 10054,12257 10500,11993 10924,11681 11322,11322 11681,10924 11993,10501 12257,10055 12473,9590 12640,9111 12760,8620 12832,8122 12856,7620 12832,7118 12760,6620 12640,6129 12473,5650 12257,5185 11993,4739 11681,4316 11322,3917 11126,3732 10924,3559 10715,3397 10500,3247 10054,2984 9590,2768 9110,2601 8619,2481 8121,2410 7620,2385 Z M 7620,3314 L 8032,3334 8442,3393 8846,3492 9241,3629 9623,3807 9990,4023 10167,4147 10339,4279 10505,4422 10666,4575 10961,4902 11218,5251 11434,5618 11612,5999 11749,6394 11848,6797 11906,7207 11927,7620 11906,8033 11848,8443 11749,8846 11612,9241 11434,9623 11218,9990 10961,10339 10666,10666 10339,10961 9990,11217 9623,11434 9241,11611 8846,11749 8443,11848 8033,11907 7620,11927 7207,11907 6797,11848 6394,11749 5999,11611 5617,11434 5250,11217 4901,10961 4574,10666 4279,10339 4023,9990 3806,9623 3629,9241 3491,8846 3392,8443 3333,8033 3313,7620 3333,7207 3392,6797 3491,6394 3629,5999 3806,5618 4023,5251 4279,4902 4574,4575 4735,4422 4901,4279 5073,4147 5250,4023 5617,3807 5999,3629 6393,3492 6797,3393 7207,3334 7620,3314 Z"/>
         </g>
        </g>
        <g>
         <defs>
          <linearGradient id="gradient6" x1="7619" y1="2385" x2="7619" y2="12855" gradientUnits="userSpaceOnUse">
           <stop offset="0" style="stop-color:rgb(243,143,24)"/>
           <stop offset="1" style="stop-color:rgb(222,106,16)"/>
          </linearGradient>
         </defs>
         <path style="fill:url(#gradient6)" d="M 7619,2385 L 7118,2410 6620,2481 6129,2601 5649,2768 5185,2984 4739,3247 4524,3397 4315,3559 4113,3732 3917,3917 3558,4316 3247,4739 2983,5185 2767,5649 2600,6129 2480,6620 2409,7118 2384,7620 2409,8122 2480,8620 2600,9110 2767,9590 2983,10054 3247,10500 3558,10924 3917,11321 4315,11681 4739,11992 5185,12256 5649,12472 6129,12639 6620,12759 7118,12831 7619,12855 8121,12831 8619,12759 9109,12639 9589,12472 10054,12256 10500,11992 10924,11681 11321,11321 11681,10924 11992,10500 12256,10054 12472,9590 12639,9110 12759,8620 12831,8122 12855,7620 12831,7118 12759,6620 12639,6129 12472,5649 12256,5185 11992,4739 11681,4316 11321,3917 11125,3732 10924,3559 10715,3397 10500,3247 10054,2984 9589,2768 9109,2601 8619,2481 8121,2410 7619,2385 Z M 7619,3314 L 8032,3334 8442,3393 8846,3491 9240,3629 9623,3806 9990,4023 10166,4147 10338,4279 10505,4422 10665,4575 10961,4902 11217,5250 11434,5618 11611,5999 11749,6394 11847,6797 11906,7207 11926,7620 11906,8033 11847,8442 11749,8846 11611,9240 11434,9623 11217,9990 10961,10338 10665,10665 10338,10961 9990,11217 9623,11434 9240,11611 8846,11749 8442,11848 8033,11907 7620,11927 7207,11907 6797,11848 6394,11749 5999,11611 5617,11434 5250,11217 4901,10961 4574,10665 4279,10338 4022,9990 3806,9623 3628,9240 3491,8846 3391,8442 3333,8033 3313,7620 3333,7207 3391,6797 3491,6394 3628,5999 3806,5618 4022,5250 4279,4902 4574,4575 4735,4422 4901,4279 5073,4147 5250,4023 5617,3806 5999,3629 6393,3491 6797,3393 7207,3334 7619,3314 Z"/>
        </g>
        <defs>
         <mask id="mask3">
          <g>
           <defs>
            <linearGradient id="gradient7" x1="7620" y1="3817" x2="7620" y2="11424" gradientUnits="userSpaceOnUse">
             <stop offset="0.5" style="stop-color:rgb(128,128,128)"/>
             <stop offset="0.5" style="stop-color:rgb(128,128,128)"/>
             <stop offset="1" style="stop-color:rgb(128,128,128)"/>
             <stop offset="1" style="stop-color:rgb(128,128,128)"/>
            </linearGradient>
           </defs>
           <path style="fill:url(#gradient7)" d="M 3817,3817 L 11424,3817 11424,11424 3817,11424 3817,3817 Z"/>
          </g>
         </mask>
        </defs>
        <g style="mask:url(#mask3)">
         <g>
          <defs>
           <linearGradient id="gradient8" x1="7620" y1="3817" x2="7620" y2="11423" gradientUnits="userSpaceOnUse">
            <stop offset="0" style="stop-color:rgb(0,0,0)"/>
            <stop offset="1" style="stop-color:rgb(0,0,0)"/>
           </linearGradient>
          </defs>
          <path style="fill:url(#gradient8)" d="M 7620,3817 L 7256,3835 6894,3887 6538,3973 6189,4095 5851,4251 5527,4443 5371,4551 5219,4669 5072,4795 4930,4930 4669,5219 4443,5527 4251,5851 4095,6188 3973,6537 3887,6894 3834,7255 3817,7620 3834,7985 3887,8346 3973,8703 4095,9051 4251,9389 4443,9713 4669,10021 4930,10310 5219,10571 5527,10797 5851,10988 6188,11145 6537,11267 6894,11354 7256,11406 7620,11423 7985,11406 8347,11354 8703,11267 9051,11145 9389,10988 9713,10797 10021,10571 10310,10310 10571,10021 10797,9713 10988,9389 11145,9051 11267,8703 11354,8346 11406,7985 11423,7620 11406,7255 11354,6894 11267,6537 11145,6188 10988,5851 10797,5527 10571,5219 10310,4930 10168,4795 10021,4669 9870,4551 9713,4443 9389,4251 9051,4095 8703,3973 8347,3887 7985,3835 7620,3817 Z M 7620,4732 L 7897,4745 8172,4785 8443,4851 8707,4943 8963,5063 9209,5208 9328,5290 9443,5379 9555,5475 9662,5578 9860,5797 10032,6030 10177,6276 10296,6533 10389,6797 10455,7068 10494,7343 10508,7620 10494,7897 10455,8171 10389,8443 10296,8706 10177,8963 10032,9209 9860,9443 9662,9662 9443,9860 9209,10032 8963,10177 8706,10296 8443,10389 8171,10455 7897,10494 7620,10508 7343,10494 7068,10455 6798,10389 6533,10296 6277,10177 6031,10032 5798,9860 5578,9662 5380,9443 5208,9209 5063,8963 4944,8706 4851,8443 4786,8171 4745,7897 4733,7620 4745,7343 4786,7068 4851,6797 4944,6533 5063,6276 5208,6030 5380,5797 5578,5578 5686,5475 5798,5379 5913,5290 6031,5208 6277,5063 6533,4943 6798,4851 7068,4785 7343,4745 7620,4732 Z"/>
         </g>
        </g>
        <g>
         <defs>
          <linearGradient id="gradient9" x1="7620" y1="3817" x2="7620" y2="11424" gradientUnits="userSpaceOnUse">
           <stop offset="0" style="stop-color:rgb(243,143,24)"/>
           <stop offset="1" style="stop-color:rgb(222,106,16)"/>
          </linearGradient>
         </defs>
         <path style="fill:url(#gradient9)" d="M 7620,3817 L 7256,3834 6893,3886 6537,3973 6189,4095 5851,4251 5527,4442 5371,4551 5219,4668 5072,4794 4930,4930 4668,5219 4442,5527 4251,5850 4095,6188 3973,6536 3886,6893 3833,7255 3817,7620 3833,7985 3886,8346 3973,8703 4095,9051 4251,9389 4442,9713 4668,10021 4930,10310 5219,10571 5527,10797 5850,10989 6188,11146 6536,11267 6893,11354 7256,11406 7620,11424 7985,11406 8347,11354 8703,11267 9051,11146 9389,10989 9713,10797 10021,10571 10310,10310 10571,10021 10797,9713 10989,9389 11146,9051 11267,8703 11354,8346 11406,7985 11424,7620 11406,7255 11354,6893 11267,6536 11146,6188 10989,5850 10797,5527 10571,5219 10310,4930 10168,4794 10021,4668 9870,4551 9713,4442 9389,4251 9051,4095 8703,3973 8347,3886 7985,3834 7620,3817 Z M 7620,4731 L 7897,4745 8172,4784 8442,4851 8707,4943 8963,5062 9209,5208 9328,5290 9443,5379 9555,5475 9662,5577 9860,5796 10032,6030 10177,6276 10296,6533 10389,6797 10455,7068 10495,7343 10508,7620 10495,7896 10455,8171 10389,8442 10296,8706 10177,8963 10032,9209 9860,9443 9662,9662 9443,9860 9209,10032 8963,10177 8706,10296 8442,10389 8171,10455 7896,10495 7620,10508 7343,10495 7068,10455 6798,10389 6533,10296 6277,10177 6031,10032 5797,9860 5578,9662 5380,9443 5208,9209 5062,8963 4944,8706 4851,8442 4785,8171 4745,7896 4732,7620 4745,7343 4785,7068 4851,6797 4944,6533 5062,6276 5208,6030 5380,5796 5578,5577 5686,5475 5797,5379 5912,5290 6031,5208 6277,5062 6533,4943 6798,4851 7068,4784 7343,4745 7620,4731 Z"/>
        </g>
       </g>
      </g>
     </g>
    </g>
   </g>
  </g>
 </g>
</svg>